<svg height="1em" viewBox="0 0 24 24" width="1em" xmlns="http://www.w3.org/2000/svg" xmlns:xlink="http://www.w3.org/1999/xlink"><linearGradient id="a" x1="0%" x2="100.182%" y1="50.057%" y2="50.057%"><stop offset="0" stop-color="#e2167e"/><stop offset="1" stop-color="#fe603c"/></linearGradient><path d="m16.278 2c1.156 0 2.093.927 2.093 2.07v12.501a.74.74 0 0 0 .744.709.74.74 0 0 0 .743-.709v-7.472a2.06 2.06 0 0 1 2.071-2.049 2.06 2.06 0 0 1 2.071 2.05v6.561a.649.649 0 0 1 -.652.645.649.649 0 0 1 -.653-.645v-6.561a.762.762 0 0 0 -.766-.758.762.762 0 0 0 -.766.758v7.472a2.037 2.037 0 0 1 -2.048 2.026 2.037 2.037 0 0 1 -2.048-2.026v-12.5a.785.785 0 0 0 -.788-.753.785.785 0 0 0 -.789.752l-.001 15.904a2.037 2.037 0 0 1 -2.048 2.025 2.037 2.037 0 0 1 -2.048-2.026v-1.934c0-.356.292-.645.652-.645s.652.289.652.645v1.934c0 .263.142.506.372.638.23.131.514.131.744 0a.734.734 0 0 0 .372-.638v-15.904c0-1.143.937-2.07 2.093-2.07zm-5.674 0c1.156 0 2.093.927 2.093 2.07v11.523a.648.648 0 0 1 -.652.645.648.648 0 0 1 -.652-.645v-11.523a.785.785 0 0 0 -.789-.78.785.785 0 0 0 -.789.78v14.013a2.06 2.06 0 0 1 -2.07 2.048 2.06 2.06 0 0 1 -2.071-2.048v-8.983a.762.762 0 0 0 -.766-.758.762.762 0 0 0 -.766.758v3.8a2.06 2.06 0 0 1 -2.071 2.049 2.06 2.06 0 0 1 -2.071-2.049v-1.378c0-.357.292-.646.652-.646s.653.29.653.646v1.378c0 .418.343.757.766.757s.766-.339.766-.757v-3.801a2.06 2.06 0 0 1 2.07-2.048 2.06 2.06 0 0 1 2.071 2.048v8.984c0 .419.343.758.767.758.423 0 .766-.339.766-.758v-14.013c0-1.143.937-2.07 2.093-2.07z" fill="url(#a)"/></svg>